<mxfile host="app.diagrams.net" modified="2022-07-20T17:19:15.060Z" agent="5.0 (Windows NT 10.0; Win64; x64) AppleWebKit/537.36 (KHTML, like Gecko) Chrome/103.0.0.0 Safari/537.36" etag="4Lbr1hL-rLJyK1K_qtpu" version="20.1.2" type="github">
  <diagram id="C5RBs43oDa-KdzZeNtuy" name="Page-1">
    <mxGraphModel dx="3422" dy="1223" grid="1" gridSize="10" guides="1" tooltips="1" connect="1" arrows="1" fold="1" page="1" pageScale="1" pageWidth="827" pageHeight="1169" math="0" shadow="0">
      <root>
        <mxCell id="WIyWlLk6GJQsqaUBKTNV-0" />
        <mxCell id="WIyWlLk6GJQsqaUBKTNV-1" parent="WIyWlLk6GJQsqaUBKTNV-0" />
        <mxCell id="vjwqEe53aTAte063XcU6-13" style="edgeStyle=orthogonalEdgeStyle;rounded=0;orthogonalLoop=1;jettySize=auto;html=1;exitX=0.5;exitY=0.5;exitDx=0;exitDy=0;exitPerimeter=0;entryX=0;entryY=0.5;entryDx=0;entryDy=0;" parent="WIyWlLk6GJQsqaUBKTNV-1" source="vjwqEe53aTAte063XcU6-5" target="vjwqEe53aTAte063XcU6-6" edge="1">
          <mxGeometry relative="1" as="geometry" />
        </mxCell>
        <mxCell id="vjwqEe53aTAte063XcU6-5" value="victim" style="shape=umlActor;verticalLabelPosition=bottom;verticalAlign=top;html=1;outlineConnect=0;" parent="WIyWlLk6GJQsqaUBKTNV-1" vertex="1">
          <mxGeometry x="30" y="50" width="30" height="60" as="geometry" />
        </mxCell>
        <mxCell id="vjwqEe53aTAte063XcU6-8" style="edgeStyle=orthogonalEdgeStyle;rounded=0;orthogonalLoop=1;jettySize=auto;html=1;exitX=1;exitY=0.5;exitDx=0;exitDy=0;entryX=0;entryY=0.5;entryDx=0;entryDy=0;" parent="WIyWlLk6GJQsqaUBKTNV-1" source="vjwqEe53aTAte063XcU6-6" target="vjwqEe53aTAte063XcU6-7" edge="1">
          <mxGeometry relative="1" as="geometry" />
        </mxCell>
        <mxCell id="vjwqEe53aTAte063XcU6-6" value="Web Page" style="rounded=0;whiteSpace=wrap;html=1;" parent="WIyWlLk6GJQsqaUBKTNV-1" vertex="1">
          <mxGeometry x="150" y="60" width="90" height="40" as="geometry" />
        </mxCell>
        <mxCell id="vjwqEe53aTAte063XcU6-9" style="edgeStyle=orthogonalEdgeStyle;rounded=0;orthogonalLoop=1;jettySize=auto;html=1;exitX=1;exitY=0.5;exitDx=0;exitDy=0;entryX=0;entryY=0.5;entryDx=0;entryDy=0;" parent="WIyWlLk6GJQsqaUBKTNV-1" source="vjwqEe53aTAte063XcU6-7" target="vjwqEe53aTAte063XcU6-14" edge="1">
          <mxGeometry relative="1" as="geometry">
            <mxPoint x="450" y="80" as="targetPoint" />
          </mxGeometry>
        </mxCell>
        <mxCell id="vjwqEe53aTAte063XcU6-11" style="edgeStyle=orthogonalEdgeStyle;rounded=0;orthogonalLoop=1;jettySize=auto;html=1;exitX=0.5;exitY=1;exitDx=0;exitDy=0;" parent="WIyWlLk6GJQsqaUBKTNV-1" source="vjwqEe53aTAte063XcU6-7" edge="1">
          <mxGeometry relative="1" as="geometry">
            <mxPoint x="345" y="180" as="targetPoint" />
          </mxGeometry>
        </mxCell>
        <mxCell id="vjwqEe53aTAte063XcU6-7" value="Registered" style="rhombus;whiteSpace=wrap;html=1;" parent="WIyWlLk6GJQsqaUBKTNV-1" vertex="1">
          <mxGeometry x="310" y="45" width="70" height="70" as="geometry" />
        </mxCell>
        <mxCell id="vjwqEe53aTAte063XcU6-10" value="No" style="text;html=1;resizable=0;autosize=1;align=center;verticalAlign=middle;points=[];fillColor=none;strokeColor=none;rounded=0;" parent="WIyWlLk6GJQsqaUBKTNV-1" vertex="1">
          <mxGeometry x="390" y="55" width="40" height="30" as="geometry" />
        </mxCell>
        <mxCell id="vjwqEe53aTAte063XcU6-12" value="Yes" style="text;html=1;resizable=0;autosize=1;align=center;verticalAlign=middle;points=[];fillColor=none;strokeColor=none;rounded=0;" parent="WIyWlLk6GJQsqaUBKTNV-1" vertex="1">
          <mxGeometry x="340" y="130" width="40" height="30" as="geometry" />
        </mxCell>
        <mxCell id="vjwqEe53aTAte063XcU6-15" style="edgeStyle=orthogonalEdgeStyle;rounded=0;orthogonalLoop=1;jettySize=auto;html=1;exitX=0.5;exitY=1;exitDx=0;exitDy=0;" parent="WIyWlLk6GJQsqaUBKTNV-1" source="vjwqEe53aTAte063XcU6-14" edge="1">
          <mxGeometry relative="1" as="geometry">
            <mxPoint x="600" y="180" as="targetPoint" />
          </mxGeometry>
        </mxCell>
        <mxCell id="vjwqEe53aTAte063XcU6-14" value="Registration from" style="rounded=0;whiteSpace=wrap;html=1;" parent="WIyWlLk6GJQsqaUBKTNV-1" vertex="1">
          <mxGeometry x="550" y="55" width="100" height="50" as="geometry" />
        </mxCell>
        <mxCell id="vjwqEe53aTAte063XcU6-17" style="edgeStyle=orthogonalEdgeStyle;rounded=0;orthogonalLoop=1;jettySize=auto;html=1;exitX=0.5;exitY=1;exitDx=0;exitDy=0;" parent="WIyWlLk6GJQsqaUBKTNV-1" source="vjwqEe53aTAte063XcU6-16" edge="1">
          <mxGeometry relative="1" as="geometry">
            <mxPoint x="600" y="310" as="targetPoint" />
          </mxGeometry>
        </mxCell>
        <mxCell id="vjwqEe53aTAte063XcU6-16" value="Enter the details&lt;br&gt;Name,Email,&lt;br&gt;Address" style="rounded=0;whiteSpace=wrap;html=1;" parent="WIyWlLk6GJQsqaUBKTNV-1" vertex="1">
          <mxGeometry x="550" y="180" width="100" height="50" as="geometry" />
        </mxCell>
        <mxCell id="cqUqNPsIAoQoshNRlIds-0" style="edgeStyle=orthogonalEdgeStyle;rounded=0;orthogonalLoop=1;jettySize=auto;html=1;exitX=0;exitY=0.5;exitDx=0;exitDy=0;entryX=1;entryY=0.5;entryDx=0;entryDy=0;" edge="1" parent="WIyWlLk6GJQsqaUBKTNV-1" source="vjwqEe53aTAte063XcU6-18" target="vjwqEe53aTAte063XcU6-29">
          <mxGeometry relative="1" as="geometry" />
        </mxCell>
        <mxCell id="vjwqEe53aTAte063XcU6-18" value="Submit" style="rounded=0;whiteSpace=wrap;html=1;" parent="WIyWlLk6GJQsqaUBKTNV-1" vertex="1">
          <mxGeometry x="550" y="460" width="100" height="50" as="geometry" />
        </mxCell>
        <mxCell id="vjwqEe53aTAte063XcU6-20" style="edgeStyle=orthogonalEdgeStyle;rounded=0;orthogonalLoop=1;jettySize=auto;html=1;exitX=0.5;exitY=1;exitDx=0;exitDy=0;" parent="WIyWlLk6GJQsqaUBKTNV-1" source="vjwqEe53aTAte063XcU6-19" target="vjwqEe53aTAte063XcU6-18" edge="1">
          <mxGeometry relative="1" as="geometry" />
        </mxCell>
        <mxCell id="vjwqEe53aTAte063XcU6-19" value="Verify &lt;br&gt;captcha" style="rhombus;whiteSpace=wrap;html=1;" parent="WIyWlLk6GJQsqaUBKTNV-1" vertex="1">
          <mxGeometry x="560" y="310" width="80" height="80" as="geometry" />
        </mxCell>
        <mxCell id="vjwqEe53aTAte063XcU6-21" value="Yes" style="text;html=1;resizable=0;autosize=1;align=center;verticalAlign=middle;points=[];fillColor=none;strokeColor=none;rounded=0;" parent="WIyWlLk6GJQsqaUBKTNV-1" vertex="1">
          <mxGeometry x="600" y="405" width="40" height="30" as="geometry" />
        </mxCell>
        <mxCell id="vjwqEe53aTAte063XcU6-23" value="" style="endArrow=none;html=1;rounded=0;" parent="WIyWlLk6GJQsqaUBKTNV-1" edge="1">
          <mxGeometry width="50" height="50" relative="1" as="geometry">
            <mxPoint x="640" y="349.5" as="sourcePoint" />
            <mxPoint x="740" y="350" as="targetPoint" />
          </mxGeometry>
        </mxCell>
        <mxCell id="vjwqEe53aTAte063XcU6-24" value="No" style="text;html=1;resizable=0;autosize=1;align=center;verticalAlign=middle;points=[];fillColor=none;strokeColor=none;rounded=0;" parent="WIyWlLk6GJQsqaUBKTNV-1" vertex="1">
          <mxGeometry x="660" y="350" width="40" height="30" as="geometry" />
        </mxCell>
        <mxCell id="vjwqEe53aTAte063XcU6-27" value="" style="endArrow=none;html=1;rounded=0;" parent="WIyWlLk6GJQsqaUBKTNV-1" edge="1">
          <mxGeometry width="50" height="50" relative="1" as="geometry">
            <mxPoint x="740" y="350" as="sourcePoint" />
            <mxPoint x="740" y="80" as="targetPoint" />
          </mxGeometry>
        </mxCell>
        <mxCell id="vjwqEe53aTAte063XcU6-28" value="" style="endArrow=classic;html=1;rounded=0;entryX=1;entryY=0.5;entryDx=0;entryDy=0;" parent="WIyWlLk6GJQsqaUBKTNV-1" target="vjwqEe53aTAte063XcU6-14" edge="1">
          <mxGeometry width="50" height="50" relative="1" as="geometry">
            <mxPoint x="740" y="79.47" as="sourcePoint" />
            <mxPoint x="660" y="79.47" as="targetPoint" />
          </mxGeometry>
        </mxCell>
        <mxCell id="vjwqEe53aTAte063XcU6-30" style="edgeStyle=orthogonalEdgeStyle;rounded=0;orthogonalLoop=1;jettySize=auto;html=1;exitX=0.5;exitY=1;exitDx=0;exitDy=0;" parent="WIyWlLk6GJQsqaUBKTNV-1" source="vjwqEe53aTAte063XcU6-29" edge="1">
          <mxGeometry relative="1" as="geometry">
            <mxPoint x="344.89473684210543" y="300" as="targetPoint" />
          </mxGeometry>
        </mxCell>
        <mxCell id="vjwqEe53aTAte063XcU6-29" value="Log in" style="rounded=0;whiteSpace=wrap;html=1;" parent="WIyWlLk6GJQsqaUBKTNV-1" vertex="1">
          <mxGeometry x="292.5" y="180" width="105" height="50" as="geometry" />
        </mxCell>
        <mxCell id="vjwqEe53aTAte063XcU6-33" style="edgeStyle=orthogonalEdgeStyle;rounded=0;orthogonalLoop=1;jettySize=auto;html=1;exitX=0.5;exitY=1;exitDx=0;exitDy=0;entryX=0.5;entryY=0;entryDx=0;entryDy=0;" parent="WIyWlLk6GJQsqaUBKTNV-1" source="vjwqEe53aTAte063XcU6-31" target="vjwqEe53aTAte063XcU6-32" edge="1">
          <mxGeometry relative="1" as="geometry" />
        </mxCell>
        <mxCell id="vjwqEe53aTAte063XcU6-31" value="Enter Username &amp;amp; password" style="rounded=0;whiteSpace=wrap;html=1;" parent="WIyWlLk6GJQsqaUBKTNV-1" vertex="1">
          <mxGeometry x="292.5" y="300" width="107.5" height="50" as="geometry" />
        </mxCell>
        <mxCell id="vjwqEe53aTAte063XcU6-39" style="edgeStyle=orthogonalEdgeStyle;rounded=0;orthogonalLoop=1;jettySize=auto;html=1;exitX=0.5;exitY=1;exitDx=0;exitDy=0;" parent="WIyWlLk6GJQsqaUBKTNV-1" source="vjwqEe53aTAte063XcU6-32" target="vjwqEe53aTAte063XcU6-40" edge="1">
          <mxGeometry relative="1" as="geometry">
            <mxPoint x="345.9473684210527" y="570" as="targetPoint" />
          </mxGeometry>
        </mxCell>
        <mxCell id="cqUqNPsIAoQoshNRlIds-1" style="edgeStyle=orthogonalEdgeStyle;rounded=0;orthogonalLoop=1;jettySize=auto;html=1;exitX=0;exitY=0.5;exitDx=0;exitDy=0;entryX=0;entryY=0.5;entryDx=0;entryDy=0;" edge="1" parent="WIyWlLk6GJQsqaUBKTNV-1" source="vjwqEe53aTAte063XcU6-32" target="vjwqEe53aTAte063XcU6-29">
          <mxGeometry relative="1" as="geometry">
            <Array as="points">
              <mxPoint x="200" y="470" />
              <mxPoint x="200" y="205" />
            </Array>
          </mxGeometry>
        </mxCell>
        <mxCell id="vjwqEe53aTAte063XcU6-32" value="Verify the&amp;nbsp;&lt;br&gt;credentials" style="rhombus;whiteSpace=wrap;html=1;" parent="WIyWlLk6GJQsqaUBKTNV-1" vertex="1">
          <mxGeometry x="306.26" y="430" width="80" height="80" as="geometry" />
        </mxCell>
        <mxCell id="vjwqEe53aTAte063XcU6-38" value="No" style="text;html=1;resizable=0;autosize=1;align=center;verticalAlign=middle;points=[];fillColor=none;strokeColor=none;rounded=0;" parent="WIyWlLk6GJQsqaUBKTNV-1" vertex="1">
          <mxGeometry x="260" y="440" width="40" height="30" as="geometry" />
        </mxCell>
        <mxCell id="cqUqNPsIAoQoshNRlIds-5" style="edgeStyle=orthogonalEdgeStyle;rounded=0;orthogonalLoop=1;jettySize=auto;html=1;entryX=0.445;entryY=-0.052;entryDx=0;entryDy=0;entryPerimeter=0;exitX=0.5;exitY=1;exitDx=0;exitDy=0;" edge="1" parent="WIyWlLk6GJQsqaUBKTNV-1" source="vjwqEe53aTAte063XcU6-40" target="cqUqNPsIAoQoshNRlIds-3">
          <mxGeometry relative="1" as="geometry">
            <mxPoint x="346.8850000000001" y="650" as="sourcePoint" />
            <Array as="points">
              <mxPoint x="346" y="700" />
              <mxPoint x="161" y="700" />
            </Array>
          </mxGeometry>
        </mxCell>
        <mxCell id="vjwqEe53aTAte063XcU6-40" value="Submit" style="rounded=0;whiteSpace=wrap;html=1;" parent="WIyWlLk6GJQsqaUBKTNV-1" vertex="1">
          <mxGeometry x="289.38" y="570" width="113.75" height="50" as="geometry" />
        </mxCell>
        <mxCell id="vjwqEe53aTAte063XcU6-41" value="Yes" style="text;html=1;resizable=0;autosize=1;align=center;verticalAlign=middle;points=[];fillColor=none;strokeColor=none;rounded=0;" parent="WIyWlLk6GJQsqaUBKTNV-1" vertex="1">
          <mxGeometry x="350" y="510" width="40" height="30" as="geometry" />
        </mxCell>
        <mxCell id="vjwqEe53aTAte063XcU6-55" style="edgeStyle=orthogonalEdgeStyle;rounded=0;orthogonalLoop=1;jettySize=auto;html=1;exitX=0.5;exitY=0.5;exitDx=0;exitDy=0;exitPerimeter=0;" parent="WIyWlLk6GJQsqaUBKTNV-1" source="vjwqEe53aTAte063XcU6-53" target="vjwqEe53aTAte063XcU6-56" edge="1">
          <mxGeometry relative="1" as="geometry">
            <mxPoint x="160" y="1090.3157894736844" as="targetPoint" />
          </mxGeometry>
        </mxCell>
        <mxCell id="vjwqEe53aTAte063XcU6-53" value="Supporting agency/Individual" style="shape=umlActor;verticalLabelPosition=bottom;verticalAlign=top;html=1;outlineConnect=0;" parent="WIyWlLk6GJQsqaUBKTNV-1" vertex="1">
          <mxGeometry x="40" y="1060" width="30" height="60" as="geometry" />
        </mxCell>
        <mxCell id="vjwqEe53aTAte063XcU6-60" value="" style="edgeStyle=orthogonalEdgeStyle;rounded=0;orthogonalLoop=1;jettySize=auto;html=1;" parent="WIyWlLk6GJQsqaUBKTNV-1" source="vjwqEe53aTAte063XcU6-56" target="vjwqEe53aTAte063XcU6-59" edge="1">
          <mxGeometry relative="1" as="geometry" />
        </mxCell>
        <mxCell id="vjwqEe53aTAte063XcU6-56" value="Donation Button" style="rounded=0;whiteSpace=wrap;html=1;" parent="WIyWlLk6GJQsqaUBKTNV-1" vertex="1">
          <mxGeometry x="160" y="1065.1599999999999" width="100" height="49.68" as="geometry" />
        </mxCell>
        <mxCell id="vjwqEe53aTAte063XcU6-61" style="edgeStyle=orthogonalEdgeStyle;rounded=0;orthogonalLoop=1;jettySize=auto;html=1;exitX=0.5;exitY=1;exitDx=0;exitDy=0;" parent="WIyWlLk6GJQsqaUBKTNV-1" source="vjwqEe53aTAte063XcU6-59" edge="1">
          <mxGeometry relative="1" as="geometry">
            <mxPoint x="405" y="1240" as="targetPoint" />
          </mxGeometry>
        </mxCell>
        <mxCell id="vjwqEe53aTAte063XcU6-59" value="Form" style="whiteSpace=wrap;html=1;rounded=0;" parent="WIyWlLk6GJQsqaUBKTNV-1" vertex="1">
          <mxGeometry x="350" y="1065.16" width="110" height="50" as="geometry" />
        </mxCell>
        <mxCell id="vjwqEe53aTAte063XcU6-63" value="Enter the details" style="text;html=1;resizable=0;autosize=1;align=center;verticalAlign=middle;points=[];fillColor=none;strokeColor=none;rounded=0;" parent="WIyWlLk6GJQsqaUBKTNV-1" vertex="1">
          <mxGeometry x="396.57" y="1160" width="110" height="30" as="geometry" />
        </mxCell>
        <mxCell id="vjwqEe53aTAte063XcU6-66" value="" style="edgeStyle=orthogonalEdgeStyle;rounded=0;orthogonalLoop=1;jettySize=auto;html=1;" parent="WIyWlLk6GJQsqaUBKTNV-1" source="vjwqEe53aTAte063XcU6-64" target="vjwqEe53aTAte063XcU6-65" edge="1">
          <mxGeometry relative="1" as="geometry" />
        </mxCell>
        <mxCell id="vjwqEe53aTAte063XcU6-64" value="Verify" style="rhombus;whiteSpace=wrap;html=1;" parent="WIyWlLk6GJQsqaUBKTNV-1" vertex="1">
          <mxGeometry x="365" y="1240" width="80" height="80" as="geometry" />
        </mxCell>
        <mxCell id="vjwqEe53aTAte063XcU6-69" value="" style="edgeStyle=orthogonalEdgeStyle;rounded=0;orthogonalLoop=1;jettySize=auto;html=1;" parent="WIyWlLk6GJQsqaUBKTNV-1" source="vjwqEe53aTAte063XcU6-65" target="vjwqEe53aTAte063XcU6-68" edge="1">
          <mxGeometry relative="1" as="geometry" />
        </mxCell>
        <mxCell id="vjwqEe53aTAte063XcU6-65" value="Amount" style="whiteSpace=wrap;html=1;" parent="WIyWlLk6GJQsqaUBKTNV-1" vertex="1">
          <mxGeometry x="352.5" y="1410" width="105" height="40" as="geometry" />
        </mxCell>
        <mxCell id="vjwqEe53aTAte063XcU6-67" value="Yes" style="text;html=1;resizable=0;autosize=1;align=center;verticalAlign=middle;points=[];fillColor=none;strokeColor=none;rounded=0;" parent="WIyWlLk6GJQsqaUBKTNV-1" vertex="1">
          <mxGeometry x="405" y="1335" width="40" height="30" as="geometry" />
        </mxCell>
        <mxCell id="vjwqEe53aTAte063XcU6-68" value="Donate" style="whiteSpace=wrap;html=1;" parent="WIyWlLk6GJQsqaUBKTNV-1" vertex="1">
          <mxGeometry x="345" y="1520" width="120" height="60" as="geometry" />
        </mxCell>
        <mxCell id="vjwqEe53aTAte063XcU6-70" value="" style="endArrow=none;html=1;rounded=0;" parent="WIyWlLk6GJQsqaUBKTNV-1" edge="1">
          <mxGeometry width="50" height="50" relative="1" as="geometry">
            <mxPoint x="600" y="1279" as="sourcePoint" />
            <mxPoint x="445" y="1279.47" as="targetPoint" />
          </mxGeometry>
        </mxCell>
        <mxCell id="vjwqEe53aTAte063XcU6-71" value="No" style="text;html=1;resizable=0;autosize=1;align=center;verticalAlign=middle;points=[];fillColor=none;strokeColor=none;rounded=0;" parent="WIyWlLk6GJQsqaUBKTNV-1" vertex="1">
          <mxGeometry x="460" y="1250" width="40" height="30" as="geometry" />
        </mxCell>
        <mxCell id="vjwqEe53aTAte063XcU6-72" value="" style="endArrow=none;html=1;rounded=0;" parent="WIyWlLk6GJQsqaUBKTNV-1" edge="1">
          <mxGeometry width="50" height="50" relative="1" as="geometry">
            <mxPoint x="600" y="1280" as="sourcePoint" />
            <mxPoint x="600" y="1090" as="targetPoint" />
          </mxGeometry>
        </mxCell>
        <mxCell id="vjwqEe53aTAte063XcU6-73" value="" style="endArrow=classic;html=1;rounded=0;entryX=1;entryY=0.5;entryDx=0;entryDy=0;" parent="WIyWlLk6GJQsqaUBKTNV-1" target="vjwqEe53aTAte063XcU6-59" edge="1">
          <mxGeometry width="50" height="50" relative="1" as="geometry">
            <mxPoint x="600" y="1090" as="sourcePoint" />
            <mxPoint x="540" y="1130" as="targetPoint" />
          </mxGeometry>
        </mxCell>
        <mxCell id="cqUqNPsIAoQoshNRlIds-3" value="Relocation" style="rounded=0;whiteSpace=wrap;html=1;" vertex="1" parent="WIyWlLk6GJQsqaUBKTNV-1">
          <mxGeometry x="110.63" y="750" width="113.75" height="50" as="geometry" />
        </mxCell>
        <mxCell id="cqUqNPsIAoQoshNRlIds-4" value="Relief resources" style="rounded=0;whiteSpace=wrap;html=1;" vertex="1" parent="WIyWlLk6GJQsqaUBKTNV-1">
          <mxGeometry x="465.63" y="750" width="113.75" height="50" as="geometry" />
        </mxCell>
        <mxCell id="cqUqNPsIAoQoshNRlIds-6" value="" style="endArrow=none;html=1;rounded=0;" edge="1" parent="WIyWlLk6GJQsqaUBKTNV-1">
          <mxGeometry width="50" height="50" relative="1" as="geometry">
            <mxPoint x="340.63" y="700" as="sourcePoint" />
            <mxPoint x="520.63" y="700" as="targetPoint" />
          </mxGeometry>
        </mxCell>
        <mxCell id="cqUqNPsIAoQoshNRlIds-7" value="" style="endArrow=classic;html=1;rounded=0;" edge="1" parent="WIyWlLk6GJQsqaUBKTNV-1">
          <mxGeometry width="50" height="50" relative="1" as="geometry">
            <mxPoint x="520.63" y="700" as="sourcePoint" />
            <mxPoint x="520.63" y="750" as="targetPoint" />
          </mxGeometry>
        </mxCell>
        <mxCell id="cqUqNPsIAoQoshNRlIds-8" value="Need" style="text;html=1;resizable=0;autosize=1;align=center;verticalAlign=middle;points=[];fillColor=none;strokeColor=none;rounded=0;" vertex="1" parent="WIyWlLk6GJQsqaUBKTNV-1">
          <mxGeometry x="340" y="650" width="50" height="30" as="geometry" />
        </mxCell>
      </root>
    </mxGraphModel>
  </diagram>
</mxfile>
